<?xml version="1.0" encoding="utf-8"?>
<!-- Generator: Adobe Illustrator 24.0.0, SVG Export Plug-In . SVG Version: 6.00 Build 0)  -->
<svg version="1.1" id="Layer_1" xmlns:svgjs="http://svgjs.com/svgjs"
	 xmlns="http://www.w3.org/2000/svg" xmlns:xlink="http://www.w3.org/1999/xlink" x="0px" y="0px" viewBox="0 0 512 398"
	 style="enable-background:new 0 0 512 398;" xml:space="preserve">
<style type="text/css">
	.st0{fill:#00B4DB;}
</style>
<g transform="matrix(0.99,0,0,0.99,2.5600031781195582,-52.439989662170575)">
	<g>
		<path class="st0" d="M332.4,321.3c1.9,0,3.8-0.7,5.2-2.2c2.9-2.9,2.9-7.6,0-10.4l-10.6-10.6c-2.9-2.9-7.6-2.9-10.4,0
			c-2.9,2.9-2.9,7.6,0,10.4l10.6,10.6C328.7,320.6,330.5,321.3,332.4,321.3L332.4,321.3z"/>
		<circle class="st0" cx="57.6" cy="176" r="8.9"/>
		<path class="st0" d="M508.1,165L443.2,100c-2.9-2.9-7.6-2.9-10.4,0c-2.9,2.9-2.9,7.6,0,10.4l63.9,63.9l-41.1,41.1l-102-102
			l41.1-41.1L408.2,86c2.9,2.9,7.6,2.9,10.4,0c2.9-2.9,2.9-7.6,0-10.4L404,60.9c-2.5-2.5-5.8-3.9-9.4-3.9c-3.5,0-6.9,1.4-9.4,3.9
			l-43.2,43.2c-2.5,2.5-3.9,5.8-3.9,9.4c0,1.6,0.3,3.1,0.8,4.6l-17.2,17.2c-2.5,2.5-6,3.8-9.5,3.6l-90.4-5.9
			c-9.5-0.6-18.4,3.5-24.1,10.8c-3-1.8-5.8-4-8.4-6.5L173,120.8c1.7-4.7,0.7-10.2-3.1-13.9l-43.2-43.2c-2.5-2.5-5.8-3.9-9.4-3.9
			c-3.6,0-6.9,1.4-9.4,3.9L3.9,167.7c-5.2,5.2-5.2,13.6,0,18.8l43.2,43.2c2.5,2.5,5.8,3.9,9.4,3.9c3.5,0,6.9-1.4,9.4-3.9l97.6-97.6
			l15.5,15.5c3.5,3.5,7.5,6.6,11.7,9l-4.9,10c-0.8,1.6-1.8,3.1-3.1,4.4l-26.6,28.6c-3.4,3.6-4.8,8.6-3.8,13.5c1,4.8,4.2,8.9,8.7,11
			l11.3,5.1c4.6,1.7,9.5,2.4,14.2,2.5c9.8,0,19.4-3.4,27.2-9.8l21.7-17.9c0.6-0.5,1.4-0.7,2.1-0.5l64.1,14.8c0.7,0.2,1.3,0.3,2,0.4
			l1,3.7c1.3,4.6,3.7,8.7,7,12.1l98.8,98.8c2.9,2.9,2.9,7.6,0,10.4l-13.7,13.7c-1.4,1.4-3.2,2.2-5.2,2.2s-3.8-0.8-5.2-2.2l-11-11
			c0,0,0,0,0,0l-11.6-11.6c-2.9-2.9-7.6-2.9-10.4,0c-2.9,2.9-2.9,7.6,0,10.4l14.8,14.8c2.9,2.9,2.9,7.6,0,10.4l-13.7,13.7
			c-1.4,1.4-3.2,2.2-5.2,2.2s-3.8-0.8-5.2-2.2l-51.4-51.4c-2.3-2.3-5.9-2.8-8.7-1.3c-0.6,0.3-1.2,0.8-1.8,1.3
			c-2.9,2.9-2.9,7.6,0,10.4l43.4,43.4c2.9,2.9,2.9,7.6,0,10.4l-13.7,13.7c-2.9,2.9-7.6,2.9-10.4,0l-43.4-43.4
			c-2.9-2.9-7.6-2.9-10.4,0c-0.3,0.3-0.5,0.5-0.7,0.8l-4.8-4.8h0c-2.4-2.4-5.3-4.2-8.4-5.2c0.8-2.3,1.2-4.8,1.2-7.3
			c0-5.9-2.3-11.5-6.5-15.7l-13.7-13.7h0c-4.2-4.2-9.7-6.5-15.7-6.5c-2.5,0-5,0.4-7.3,1.2c-1.1-3.1-2.8-5.9-5.2-8.4l-13.7-13.7
			c-7.5-7.5-19-8.5-27.6-3c-1.1-2.4-2.6-4.7-4.5-6.6l-13.7-13.7h0c-4-4-9.3-6.3-15-6.5c-0.4-0.4-19.8-19.9-19.8-19.9
			c-2.9-2.9-7.6-2.9-10.4,0c-2.9,2.9-2.9,7.6,0,10.4l14.9,14.9c-0.3,0.3-0.7,0.6-1,0.9l-11.5,11.5c-10.3,10.3-10.3,27,0,37.2
			l7.8,7.8c5,5,11.6,7.7,18.6,7.7c0.2,0,0.3,0,0.5,0c0,0.2,0,0.3,0,0.5c0,7,2.7,13.6,7.7,18.6l7.8,7.8c5.1,5.1,11.9,7.7,18.6,7.7
			c0,0,0,0,0.1,0c-0.1,6.6,2.3,13.3,7.4,18.3l9.3,9.3c4.8,4.8,11.1,7.4,17.9,7.4c0.2,0,0.3,0,0.5,0c0,0,0,0,0,0
			c0,7,2.7,13.6,7.7,18.6l7.8,7.8c5,5,11.6,7.7,18.6,7.7c6.8,0,13.1-2.5,18-7.1l16.8,16.8c4.2,4.2,9.7,6.5,15.7,6.5
			s11.5-2.3,15.7-6.5l13.7-13.7c2.4-2.4,4.2-5.3,5.2-8.4c2.3,0.8,4.8,1.2,7.3,1.2c5.7,0,11.3-2.2,15.7-6.5l13.7-13.7
			c2.3-2.3,4-5.1,5.1-8c2.6,1,5.3,1.6,8.1,1.6c5.9,0,11.5-2.3,15.7-6.5l13.7-13.7c2.4-2.4,4-5.1,5.1-8c2.5,1,5.2,1.5,7.9,1.5
			c5.9,0,11.5-2.3,15.7-6.5l13.7-13.7c8.6-8.6,8.6-22.7,0-31.3l-23.8-23.8l13.9-24.9c2.3-4.1,5.2-7.9,8.5-11.3l32.5-32.5
			c1.1,0.3,2.2,0.4,3.4,0.4c3.4,0,6.8-1.3,9.4-3.9l43.2-43.2C513.3,178.6,513.3,170.2,508.1,165L508.1,165z M56.5,218.2l-41.1-41.1
			l102-102l41.1,41.1L56.5,218.2z M110.5,320.3c-3.1,0-6-1.2-8.2-3.4l-7.8-7.8c-4.5-4.5-4.5-11.8,0-16.3l11.5-11.5
			c1.4-1.4,3.2-2.2,5.2-2.2c2,0,3.8,0.8,5.2,2.2l13.7,13.7c2.9,2.9,2.9,7.6,0,10.4l-11.5,11.5C116.5,319.1,113.6,320.3,110.5,320.3
			L110.5,320.3z M136.9,351.5l-7.8-7.8c-2.2-2.2-3.4-5.1-3.4-8.2s1.2-6,3.4-8.2l22.8-22.8c2.9-2.9,7.6-2.9,10.4,0l13.7,13.7
			c2.9,2.9,2.9,7.6,0,10.4l-22.8,22.8C148.7,356,141.4,356,136.9,351.5z M187.1,386.8c-3.9,4.1-11,4.1-14.9,0l-9.3-9.3
			c-4.1-4.1-4.1-10.8,0-14.9l30.8-30.8c2.7-2.9,7.7-2.9,10.4,0h0l13.7,13.7c1.4,1.4,2.2,3.2,2.2,5.2c0,2-0.8,3.8-2.2,5.2
			L187.1,386.8z M214.2,424c-3.1,0-6-1.2-8.2-3.4l-7.8-7.8c-2.2-2.2-3.4-5.1-3.4-8.2c0-3.1,1.2-6,3.4-8.2l22.8-22.8
			c2.7-2.9,7.7-2.9,10.4,0h0l13.7,13.7c2.9,2.9,2.9,7.6,0,10.4l-22.8,22.8C220.2,422.8,217.3,424,214.2,424L214.2,424z M283.6,424.3
			L269.9,438c-1.4,1.4-3.2,2.2-5.2,2.2c-2,0-3.8-0.8-5.2-2.2l-16.8-16.8l12.9-12.9c4.4-4.4,6.5-10.2,6.5-16l21.5,21.5
			c1.4,1.4,2.2,3.2,2.2,5.2C285.8,421.1,285,422.9,283.6,424.3L283.6,424.3z M409.2,252.5c-4.3,4.3-8,9.2-11,14.5l-11.9,21.2
			L322.1,224c-1.2-1.2-2.1-2.6-2.7-4.1c6.3-0.3,12.5-1.6,18.5-3.7c3.8-1.4,5.8-5.6,4.4-9.5s-5.6-5.8-9.5-4.4
			c-9,3.2-18.6,3.8-27.9,1.7l-64.1-14.8c-5.2-1.2-10.7,0.1-14.9,3.5l-21.7,17.9c-7.4,6.1-17.2,8-26.3,5.1l-10.9-4.9
			c-0.3,0-0.4-0.8-0.2-0.9l0.5-0.5l26.2-28.1c2.2-2.4,4.1-5.1,5.5-8l8.9-18.1c2.4-4.9,7.5-7.9,13-7.5l90.4,5.9
			c7.8,0.5,15.4-2.4,20.9-7.9l16.3-16.3l91.9,91.9L409.2,252.5z"/>
	</g>
</g>
</svg>
