<svg id="Layer_1" data-name="Layer 1" xmlns="http://www.w3.org/2000/svg" viewBox="0 0 496.64 367.02"><defs><style>.cls-1{fill:#00b4db;}</style></defs><title>post</title><path class="cls-1" d="M491.69,60.91l-56-56a17,17,0,0,0-24,0l-31.2,31.2a45.82,45.82,0,0,0-20.68-4.9H46a46,46,0,0,0-46,46V321.05a46,46,0,0,0,46,46H69.38a7.26,7.26,0,1,0,0-14.52H46a31.49,31.49,0,0,1-31.45-31.45V131.3H285.43l-8,8a42.57,42.57,0,0,0-10,15.95l-26.34,75.14H210.61V199.92a7.26,7.26,0,0,0-14.51,0v30.45H164.74a7.26,7.26,0,0,0,0,14.52H196.1v31.35a7.26,7.26,0,1,0,14.51,0V244.89h25.76a13.9,13.9,0,0,0,18.41,14.69l20.56-7.21c-6.72,34-37.1,59.56-72.44,59.56A73.85,73.85,0,1,1,233,170.61a7.26,7.26,0,0,0,5.91-13.26A88.4,88.4,0,1,0,290.81,247l50.61-17.73a42.63,42.63,0,0,0,15.94-10l34-34V321.05a31.49,31.49,0,0,1-31.46,31.45H106A7.26,7.26,0,0,0,106,367H359.89a46,46,0,0,0,46-46V170.69l85.83-85.83a17,17,0,0,0,0-24ZM422,15.22a2.43,2.43,0,0,1,3.42,0l9.88,9.87L311.93,148.5a29.68,29.68,0,0,0-6.24-9.28,30.55,30.55,0,0,0-4.19-3.46ZM14.52,116.78V77.22A31.5,31.5,0,0,1,46,45.76H359.89a31.75,31.75,0,0,1,9.57,1.5L300,116.78ZM251.19,245.45l12.22-34.86,22.65,22.64Zm95.91-36.53a27.91,27.91,0,0,1-10.49,6.59l-35.35,12.4-32.53-32.53L281.13,160a28,28,0,0,1,6.59-10.49l3.17-3.17a14.92,14.92,0,0,1,4.53,3.12,15.12,15.12,0,0,1,4.4,11.46,9.53,9.53,0,0,0,10,10,15.06,15.06,0,0,1,15.85,15.84,9.54,9.54,0,0,0,10,10,14.92,14.92,0,0,1,11.17,4.12,14.12,14.12,0,0,1,3.34,4.87ZM481.42,74.6,360.86,195.16a28.22,28.22,0,0,0-4-4.75,29.38,29.38,0,0,0-9.56-6l75.55-75.55a7.26,7.26,0,1,0-10.26-10.27l-75.1,75.1a29.31,29.31,0,0,0-15.33-14.85L445.6,35.36l15.09,15.08L436,75.18a7.26,7.26,0,0,0,10.27,10.26L471,60.71l10.47,10.47a2.41,2.41,0,0,1,0,3.42Z"/><path class="cls-1" d="M64.32,59.14A22.79,22.79,0,1,0,87.1,81.93,22.81,22.81,0,0,0,64.32,59.14Zm0,31.05a8.27,8.27,0,1,1,8.26-8.26A8.28,8.28,0,0,1,64.32,90.19Z"/><path class="cls-1" d="M176,75.62h-58.1a7.26,7.26,0,0,0,0,14.52H176a7.26,7.26,0,0,0,0-14.52Z"/><path class="cls-1" d="M228,75.62h-21a7.26,7.26,0,1,0,0,14.52h21a7.26,7.26,0,1,0,0-14.52Z"/></svg>