<?xml version="1.0"?>
<svg xmlns="http://www.w3.org/2000/svg" xmlns:xlink="http://www.w3.org/1999/xlink" xmlns:svgjs="http://svgjs.com/svgjs" version="1.1" width="512" height="512" x="0" y="0" viewBox="0 0 512 512" style="enable-background:new 0 0 512 512" xml:space="preserve" class=""><g><g xmlns="http://www.w3.org/2000/svg"><path d="m511.626 198.384c-1.502-6.016-3.637-11.899-6.344-17.485-1.791-3.696-6.239-5.239-9.935-3.448s-5.24 6.24-3.449 9.936c1.796 3.706 3.29 7.568 4.458 11.519h-102.709c-10.339-17.351-23.839-32.607-39.707-44.963 5.374-2.953 11.106-5.246 17.02-6.822v1.971c0 12.301 10.008 22.31 22.31 22.31h27.543c12.302 0 22.31-10.008 22.31-22.31v-1.977c11.511 3.053 22.16 8.792 31.127 16.842 1.421 1.276 3.196 1.904 4.966 1.904 2.037 0 4.067-.833 5.536-2.468 2.744-3.056 2.491-7.758-.565-10.501-11.708-10.513-25.823-17.73-41.064-21.071v-6.41c4.774-5.365 8.73-11.505 11.644-18.078 11.975-1.033 21.404-11.111 21.404-23.35v-4.452c0-9.697-6.569-17.888-15.49-20.356v-44.824c0-6.834-5.56-12.394-12.394-12.394h-48.778c-25.423 0-46.107 20.683-46.107 46.107v11.111c-8.922 2.468-15.49 10.659-15.49 20.356v4.452c0 12.238 9.429 22.317 21.405 23.35 2.913 6.573 6.869 12.713 11.643 18.078v6.403c-10.761 2.371-21.104 6.736-30.328 12.804-24.796-15.587-54.111-24.618-85.501-24.618-30.254 0-59.432 8.392-84.678 24.022-9.066-5.829-18.927-9.928-29.414-12.215v-6.395c4.774-5.365 8.73-11.505 11.643-18.078 11.976-1.033 21.405-11.111 21.405-23.35v-4.452c0-9.697-6.569-17.888-15.49-20.356v-26.977c0-16.675-13.566-30.242-30.242-30.242h-46.794c-16.676 0-30.242 13.567-30.242 30.242v26.976c-8.922 2.468-15.49 10.659-15.49 20.356v4.452c0 12.238 9.429 22.317 21.405 23.35 2.914 6.573 6.87 12.714 11.643 18.078v6.409c-33.504 7.327-60.115 32.978-68.503 66.563-.93 3.723-.107 7.595 2.258 10.623 2.368 3.033 5.932 4.772 9.777 4.772h96.298c-8.128 17.658-13.044 36.789-14.349 56.601-.27 4.098 2.833 7.639 6.932 7.909 4.089.285 7.639-2.833 7.91-6.931 5.043-76.534 69.144-136.485 145.932-136.485 80.644 0 146.253 65.609 146.253 146.253s-65.609 146.253-146.253 146.253c-72.611 0-134.885-54.144-144.855-125.944-.565-4.067-4.312-6.911-8.389-6.343-4.068.565-6.908 4.321-6.343 8.388 5.3 38.164 24.246 73.248 53.35 98.79 29.378 25.783 67.107 39.982 106.237 39.982 15.222 0 29.958-2.124 43.928-6.087l32.659 57.138c6.129 10.723 17.367 16.739 28.915 16.739 5.588 0 11.249-1.409 16.439-4.375 7.708-4.406 13.24-11.55 15.575-20.117 2.335-8.566 1.194-17.529-3.211-25.237l-31.541-55.181c35.632-29.579 58.364-74.187 58.364-124.008 0-24.03-5.297-46.843-14.769-67.347h98.103c3.845 0 7.409-1.739 9.777-4.772 2.362-3.024 3.185-6.897 2.255-10.62zm-90.813-41.855h-27.543c-4.101 0-7.437-3.336-7.437-7.437v-10.622c6.375 3.688 13.63 5.663 21.208 5.663s14.833-1.975 21.208-5.663v10.623c.001 4.1-3.335 7.436-7.436 7.436zm-21.304-139.699h46.299v30.918h-77.524c.17-17.076 14.109-30.918 31.225-30.918zm-35.12 75.717h-3.039c-4.722 0-8.564-3.841-8.564-8.564v-4.452c0-3.442 2.801-6.244 6.243-6.244h1.81c4.107 0 7.437-3.329 7.437-7.437v-3.229h77.532v3.229c0 4.108 3.33 7.437 7.437 7.437h1.81c3.442 0 6.243 2.801 6.243 6.244v4.452c0 4.722-3.842 8.564-8.564 8.564h-3.039c-3.149 0-5.958 1.984-7.01 4.953-2.628 7.418-6.93 14.306-12.439 19.92l-3.502 3.569c-5.234 5.333-12.231 8.27-19.703 8.27s-14.469-2.937-19.703-8.27l-3.502-3.569c-5.509-5.614-9.81-12.502-12.438-19.92-1.052-2.969-3.859-4.953-7.009-4.953zm-280.639 45.923c6.375 3.688 13.63 5.663 21.208 5.663s14.832-1.975 21.207-5.663v10.622c0 4.101-3.336 7.437-7.437 7.437h-27.541c-4.101 0-7.437-3.336-7.437-7.437zm-17.558-106.271c0-8.475 6.894-15.369 15.369-15.369h46.794c8.475 0 15.369 6.894 15.369 15.369v15.549h-77.532zm-3.887 60.348h-3.039c-4.722 0-8.564-3.841-8.564-8.564v-4.452c0-3.442 2.801-6.244 6.243-6.244h1.81c4.107 0 7.437-3.329 7.437-7.437v-3.229h77.532v3.229c0 4.108 3.33 7.437 7.437 7.437h1.81c3.442 0 6.243 2.801 6.243 6.244v4.452c0 4.722-3.842 8.564-8.564 8.564h-3.04c-3.15 0-5.958 1.984-7.01 4.953-2.628 7.418-6.929 14.306-12.438 19.92l-3.502 3.569c-5.233 5.333-12.23 8.27-19.702 8.27s-14.469-2.937-19.703-8.27l-3.502-3.569c-5.508-5.613-9.809-12.502-12.438-19.92-1.052-2.969-3.86-4.953-7.01-4.953zm82.499 71.15c-11.154 10.484-20.641 22.342-28.29 35.21h-100.872c7.512-25.504 27.755-45.059 53.235-51.793v1.98c0 12.301 10.008 22.31 22.31 22.31h27.543c12.302 0 22.31-10.008 22.31-22.31v-1.969c5.541 1.464 10.862 3.541 15.922 6.228-4.197 3.23-8.257 6.677-12.158 10.344zm231.718 303.998c2.434 4.26 3.064 9.212 1.774 13.945-1.29 4.734-4.346 8.681-8.605 11.115-8.793 5.026-20.035 1.961-25.06-6.831l-31.202-54.589c11.533-4.491 22.423-10.274 32.496-17.171z" fill="#00b4db" data-original="#000000" style="" class=""/><path d="m138.319 334.784c.381 10.708 5.884 20.379 14.657 26.249-.751 2.239-1.425 4.516-2.003 6.832-.93 3.723-.107 7.595 2.258 10.623 2.368 3.033 5.932 4.772 9.777 4.772h185.099c3.845 0 7.409-1.739 9.777-4.772 2.365-3.028 3.188-6.9 2.258-10.623-.62-2.482-1.351-4.916-2.167-7.308 8.354-5.929 13.601-15.448 13.968-25.772.323-9.076-2.971-17.664-9.274-24.181-1.177-1.216-1.347-3.222-.407-4.769 3.134-5.158 4.791-11.087 4.791-17.147 0-11.365-5.731-21.798-15.333-27.907-1.563-.994-2.355-2.724-1.97-4.304 1.792-7.362.98-15.188-2.286-22.037-3.894-8.162-11.064-14.439-19.672-17.222-1.753-.545-2.845-2.4-2.781-4.305-.084-1.663-.284-3.377-.594-5.097-.727-4.043-4.591-6.727-8.635-6.004-4.042.727-6.73 4.594-6.003 8.635.213 1.188.342 2.328.389 3.463.305 8.018 5.548 15.034 13.048 17.46 4.807 1.554 8.651 4.919 10.824 9.474 1.822 3.822 2.258 8.011 1.259 12.114-1.893 7.772 1.498 15.959 8.437 20.372 5.287 3.365 8.444 9.106 8.444 15.358 0 3.335-.909 6.593-2.628 9.423-4.467 7.35-3.468 16.74 2.427 22.835 3.467 3.584 5.279 8.311 5.101 13.31-.164 4.609-2.116 8.927-5.318 12.14-12.352-22.622-33.976-39.225-59.656-44.991v-5.803c2.863-3.412 5.387-7.087 7.535-10.999 10.71-2.157 18.799-11.64 18.799-22.976v-4.452c0-7.607-4.049-14.431-10.341-18.154v-13.528c0-2.532-1.113-4.916-3.054-6.541-1.944-1.628-4.494-2.305-6.982-1.861-3.352.594-6.783.895-10.199.895-9.818 0-19.518-2.495-28.048-7.217-2.933-1.624-6.435-1.624-9.366-.001-8.533 4.722-18.232 7.218-28.05 7.218-3.416 0-6.847-.301-10.19-.894-2.5-.443-5.047.232-6.991 1.86-1.94 1.625-3.054 4.009-3.054 6.541v13.528c-6.292 3.723-10.341 10.547-10.341 18.154v4.452c0 11.335 8.09 20.818 18.799 22.976 2.156 3.926 4.659 7.582 7.533 11.002l.003 5.996c-25.474 5.988-46.904 22.724-59.076 45.332-3.521-3.264-5.727-7.839-5.899-12.679-.178-4.999 1.634-9.727 5.102-13.31 5.896-6.095 6.894-15.485 2.427-22.836-1.719-2.828-2.628-6.087-2.628-9.422 0-6.252 3.157-11.993 8.443-15.357 6.939-4.415 10.33-12.602 8.438-20.372-.999-4.104-.564-8.293 1.258-12.114 2.173-4.556 6.018-7.921 10.825-9.476 7.501-2.425 12.743-9.442 13.047-17.453l.011-.248c.29-5.71 4.307-34.191 55.026-34.191 16.649 0 29.92 3.101 39.444 9.217 3.455 2.218 8.056 1.216 10.276-2.239 2.219-3.456 1.217-8.056-2.239-10.276-11.961-7.682-27.936-11.576-47.481-11.576-49.766 0-68.747 26.024-69.879 48.302.059 1.92-1.037 3.771-2.781 4.311-8.609 2.784-15.78 9.061-19.674 17.224-3.266 6.848-4.078 14.674-2.285 22.036.385 1.58-.407 3.31-1.971 4.305-9.6 6.108-15.332 16.541-15.332 27.906 0 6.06 1.657 11.989 4.791 17.147.941 1.547.77 3.553-.406 4.769-6.306 6.519-9.6 15.107-9.277 24.183zm94.712-25.426c6.568 4.087 14.156 6.277 22.1 6.277 7.945 0 15.532-2.191 22.101-6.277v12.471c0 4.101-3.336 7.437-7.437 7.437h-29.328c-4.101 0-7.437-3.336-7.437-7.437v-12.471zm-17.771-39.167c-4.722 0-8.564-3.841-8.564-8.564v-4.452c0-2.857 1.94-5.342 4.718-6.04 3.306-.831 5.623-3.804 5.623-7.212v-11.26c13.149.96 26.405-1.678 38.094-7.552 11.687 5.874 24.933 8.511 38.094 7.552v11.26c0 3.408 2.318 6.381 5.623 7.212 2.778.698 4.718 3.183 4.718 6.04v4.452c0 4.722-3.842 8.564-8.564 8.564h-.151c-2.88 0-5.5 1.663-6.728 4.268-2.566 5.448-5.999 10.382-10.203 14.667l-3.451 3.518c-5.137 5.235-12.005 8.117-19.339 8.117s-14.202-2.883-19.339-8.117l-3.452-3.518c-4.203-4.283-7.636-9.218-10.203-14.667-1.227-2.606-3.848-4.268-6.728-4.268zm2.898 46.768v4.87c0 12.301 10.008 22.31 22.31 22.31h29.328c12.302 0 22.31-10.008 22.31-22.31v-5.108c25.238 6.859 45.312 26.381 52.768 51.665h-178.63c7.36-24.941 27.094-44.356 51.914-51.427z" fill="#00b4db" data-original="#000000" style="" class=""/></g></g></svg>
