<svg xmlns="http://www.w3.org/2000/svg" xmlns:xlink="http://www.w3.org/1999/xlink" viewBox="0 0 578.57 184.83"><defs><style>.cls-1{fill:url(#linear-gradient);}.cls-2{font-size:58.23px;fill:#333;font-family:Gotham-Bold, Gotham;font-weight:700;}.cls-3{font-size:23.84px;font-family:Gotham-Book, Gotham;}</style><linearGradient id="linear-gradient" y1="92.41" x2="184.83" y2="92.41" gradientUnits="userSpaceOnUse"><stop offset="0" stop-color="#00b4db"/><stop offset="1" stop-color="#0083b0"/></linearGradient></defs><title>Asset 1</title><g id="Layer_2" data-name="Layer 2"><g id="Layer_1-2" data-name="Layer 1"><path class="cls-1" d="M92.41,0A92.45,92.45,0,0,0,9.53,133.33c.25.5.5,1,.76,1.49a1.82,1.82,0,0,0,2.6.7l27.2-17.68a8.15,8.15,0,0,0,1.57.24H42L54,118.3h.13a7,7,0,0,0,7-6.66,6.85,6.85,0,0,0-.63-3.25,8,8,0,0,0,6.5-8.21,7.83,7.83,0,0,0-.62-2.73,9.41,9.41,0,0,0,6.77-14.39,8.74,8.74,0,0,0,5-13c.45-.2.89-.42,1.33-.67l16-9.19,24.65-9.63.41-.14h0a5.64,5.64,0,0,1,5.58,9.4,5.36,5.36,0,0,1-.91.74l-9.84,5.57a1.82,1.82,0,0,0-.69,2.49,1.84,1.84,0,0,0,2.49.7L126.67,64h0a3.62,3.62,0,0,0,.33-.2l.73-.41h0l.13-.07h0l.19-.1a6.58,6.58,0,0,1,7.66,10.5,6.77,6.77,0,0,1-1.43,1.09L134,75l-.24.11L121,82.58A1.83,1.83,0,0,0,122,86a1.74,1.74,0,0,0,.92-.26l11.81-7,0,0a6.27,6.27,0,0,1,9.42,5.41A6.25,6.25,0,0,1,141,89.65l-.07,0-12.13,7.08a1.84,1.84,0,0,0,.92,3.42,1.77,1.77,0,0,0,.92-.25l8.55-5a5.34,5.34,0,0,1,6.3.6l.2.19a6.17,6.17,0,0,1,0,8.73l-.06.06-14,15.24a12.31,12.31,0,0,1-4.13,3L74.86,146.16a2.55,2.55,0,0,0-.39.24L45.66,169.28a1.82,1.82,0,0,0,.21,3l1.12.64a92.49,92.49,0,0,0,96.58-3.52l1.14-.78a1.81,1.81,0,0,0,.1-2.91l-24.29-19.3a1.89,1.89,0,0,0-.5-.28l-18.32-6.86a.54.54,0,0,1,0-1L129,126.1a15.91,15.91,0,0,0,5.35-3.86l5.08-5.54a8.56,8.56,0,0,1,11-1.39l23.75,15.54a1.81,1.81,0,0,0,2.65-.78l.64-1.45A92.47,92.47,0,0,0,92.41,0Zm-35,111.46h0a3.33,3.33,0,0,1-3.4,3.18l-12-.21h-.25A4.06,4.06,0,0,1,39,113.07a4.11,4.11,0,0,1,3.27-6.86l.28,0,.19.06h.12l3.95.57L54.48,108h.06A3.34,3.34,0,0,1,57.43,111.46Zm4.73-8a4.35,4.35,0,0,1-3.83,1.37h-.16L52.38,104l-.85-.12-8.27-1.2-.2-.06H43l-.21,0H42.6A5.78,5.78,0,0,1,43.06,91a6.08,6.08,0,0,1,1.86.22l0,0,.38.12.57.18,14.84,5a4.35,4.35,0,0,1,1.43,6.91Zm3.06-9.6a5.79,5.79,0,0,1-1.86-.29l-.11,0-.32-.11h0l-.86-.29-.59-.22-.15,0-6.77-2.25L46.83,88l0,0-.35-.11-.15,0L45,87.41l-.12,0a6.58,6.58,0,0,1,2-12.85,6.5,6.5,0,0,1,2.75.58l17.18,7.41.06.06.33.11.23.1.12,0a5.75,5.75,0,0,1-2.23,11Zm5.41-14.1a5,5,0,0,1-2-.39l-2.38-1-13.1-5.67-.11,0a6.58,6.58,0,1,1,6-11.62l0,0,.11.07,1,.68.29.19a7.74,7.74,0,0,0-.12,1.19,6.68,6.68,0,0,0,2.83,5.49A15.12,15.12,0,0,0,72,71.38a15.53,15.53,0,0,0,2.36-.18,5.09,5.09,0,0,1-3.72,8.56ZM94,56.88c-.08,0-.16.08-.24.12L77.61,66.25a11.49,11.49,0,0,1-12.21-.6,3,3,0,0,1,0-5L84,47.78a4,4,0,0,1,2.28-.71,4,4,0,0,1,1.93.49l11,7.28Z"/><text class="cls-2" transform="translate(211.54 94.74)">Find Partner</text><text class="cls-3" transform="translate(214.58 135.55)">your partner to success</text></g></g></svg>